PathFileType	4	(X/Y/Z)	stereocamera_static.trc
DataRate	CameraRate	NumFrames	NumMarkers	Units	OrigDataRate	OrigDataStartFrame	OrigNumFrames
28.086763070077865	28.086763070077865	24	15	mm	28.086763070077865	1	203
Frame#	Time	JOINT_NECK			JOINT_RIGHT_CLAVICLE			JOINT_LEFT_CLAVICLE			JOINT_RIGHT_SHOULDER			JOINT_LEFT_SHOULDER			JOINT_RIGHT_ELBOW			JOINT_LEFT_ELBOW			JOINT_LEFT_WRIST			JOINT_RIGHT_WRIST			JOINT_SPINE_3			JOINT_SPINE_2			JOINT_SPINE_1			JOINT_PELVIS			JOINT_RIGHT_HIP			JOINT_LEFT_HIP
		X1	Y1	Z1	X2	Y2	Z2	X3	Y3	Z3	X4	Y4	Z4	X5	Y5	Z5	X6	Y6	Z6	X7	Y7	Z7	X8	Y8	Z8	X9	Y9	Z9	X10	Y10	Z10	X11	Y11	Z11	X12	Y12	Z12	X13	Y13	Z13	X14	Y14	Z14	X15	Y15	Z15

1	1749651033.784000	158.659460	6.198302	864.333700	97.705500	0.828460	956.537200	235.682490	10.123432	891.352000	22.914084	-3.753290	993.338760	299.264900	15.761629	869.810300	-32.121440	-267.616150	1040.851700	349.966560	-213.207810	818.540100	nan	nan	nan	-66.951660	-397.352800	995.218340	158.093360	-83.943370	849.620500	152.590110	-162.752790	820.045100	150.462970	-245.317820	808.613400	146.602300	-321.680520	787.865600	64.305660	-339.625120	823.849860	238.299740	-323.416770	797.722800
2	1749651034.051000	157.994940	8.204311	868.874550	98.241730	5.878195	961.786800	236.638860	14.859185	894.969170	19.915010	-1.499355	1006.152400	300.025760	17.776564	872.461860	-33.050970	-267.967730	1030.724800	350.101400	-213.886920	818.564530	nan	nan	nan	-72.710360	-404.497200	1002.361900	158.249170	-79.564870	850.457970	152.983590	-163.172470	822.159700	150.574970	-245.500430	809.215370	151.082600	-321.833730	788.240970	65.195200	-337.853670	822.527170	239.667580	-323.950200	796.123500
3	1749651034.084000	158.610550	8.886382	868.717130	98.101650	5.859002	960.353400	236.730300	14.855385	895.334360	18.908770	-1.114517	1010.232700	301.691440	18.776998	870.759960	-32.847095	-266.044560	1031.110200	351.326670	-216.207060	818.955060	nan	nan	nan	-71.514530	-401.157050	1000.044300	158.240440	-79.569910	850.409700	153.104500	-163.310350	822.840870	150.597080	-245.544820	809.337740	146.820650	-321.613460	787.655600	64.244450	-336.626700	822.943900	237.679420	-323.128280	797.782500
4	1749651034.118000	158.157910	8.891344	871.785040	98.201685	5.898625	961.333500	236.861400	14.888749	895.796360	18.653512	-1.053393	996.051900	299.968330	18.705383	871.654200	-34.586920	-269.904400	1034.415500	350.576670	-215.317280	818.563000	nan	nan	nan	-71.665000	-401.953500	1001.480000	155.212610	-80.020934	855.630000	153.093200	-163.272900	822.761240	150.595550	-245.523510	809.355140	149.718730	-321.798440	788.208900	66.580060	-338.374700	823.876400	236.022000	-320.715550	793.299700
5	1749651034.152000	159.139990	8.072421	871.162500	97.857830	2.309173	958.012300	236.841400	14.921784	895.747000	19.539317	-1.707405	1001.736300	300.708030	17.598152	869.461600	-33.827156	-269.098670	1030.812000	350.886640	-215.499550	819.058060	nan	nan	nan	-72.512370	-402.886870	1007.129400	156.880680	-79.755350	852.969940	153.060240	-163.209330	822.574850	153.659730	-245.203020	808.373900	150.820200	-321.807830	788.299700	66.569710	-338.404630	823.691600	238.569540	-322.276620	795.462000
6	1749651034.185000	160.037170	7.660598	871.499060	98.061630	3.908932	960.071200	236.278090	11.882424	893.538950	19.562770	-1.789272	998.682600	302.116540	16.834036	868.952400	-33.320446	-267.268240	1031.624900	351.504500	-215.713980	819.090200	nan	nan	nan	-71.840480	-405.853900	1009.108400	157.672970	-79.674510	851.540570	153.081060	-163.275330	822.681500	152.233260	-245.332420	808.674930	151.281980	-321.913360	788.439700	65.984540	-336.776320	823.048700	238.412470	-323.080570	796.569100
7	1749651034.219000	161.058010	6.608173	869.688500	97.850110	2.055436	957.959400	238.715780	10.452822	891.868300	21.586578	-3.136814	997.768700	302.799970	15.922204	868.412000	-32.359727	-264.775720	1025.745300	351.612570	-215.710830	819.213200	nan	nan	nan	-71.759920	-406.783130	1010.205600	157.968100	-82.032410	850.117000	153.105530	-163.230480	822.827640	151.407110	-245.318300	808.908640	151.484120	-321.917180	788.642800	65.643296	-336.053000	820.679070	238.826410	-323.193040	797.249800
8	1749651034.252000	161.029090	6.571948	869.346900	97.715154	0.981018	956.519400	237.612920	9.705186	891.837600	21.212910	-2.804488	997.868200	303.245660	15.567929	868.668440	-31.434360	-261.347120	1028.760900	351.330070	-215.531040	819.364900	nan	nan	nan	-68.539550	-403.154820	1005.527100	158.219640	-81.081820	849.972670	153.127610	-163.277760	822.948340	153.254990	-245.240750	808.520440	151.529650	-321.987800	788.751070	65.944016	-335.979820	820.939800	239.282580	-322.978730	797.823130
9	1749651034.286000	160.460380	6.781593	869.156360	97.608440	0.404611	955.621100	236.830730	9.394094	892.098550	20.656077	-2.485946	1004.294500	302.678590	15.695632	868.410200	-31.066336	-258.980750	1031.732600	351.246240	-216.007050	819.493530	nan	nan	nan	-68.728210	-399.717870	1003.051200	158.335940	-80.410290	850.017960	153.127900	-163.319410	822.920400	152.126850	-245.348720	808.787200	149.126160	-321.877240	788.329240	65.027630	-336.477160	821.492970	238.844860	-323.083640	798.090600
10	1749651034.319000	160.288720	7.116228	869.069460	97.562574	0.204802	955.309570	236.641990	11.795238	893.784760	20.359775	-2.315968	1005.026200	302.611650	16.216815	868.289000	-30.949775	-258.136600	1032.133000	351.027400	-216.218980	819.859400	nan	nan	nan	-66.147104	-396.633150	998.323700	158.365820	-79.934370	850.088360	153.104300	-163.313540	822.759400	151.311730	-245.417860	808.978900	147.532840	-321.783100	788.018600	64.045064	-336.626770	822.324450	239.037690	-324.036360	798.205800
11	1749651034.352000	160.223860	7.189825	869.977900	97.587235	0.294015	955.416560	236.297560	11.145517	893.579840	20.072635	-2.153367	1003.716100	302.466060	16.214132	868.338900	-30.915342	-256.889050	1030.351500	351.350100	-216.696000	819.712040	nan	nan	nan	-65.091446	-397.872000	999.197400	158.368540	-79.573540	850.195200	153.068110	-163.227650	822.566100	150.756630	-245.397480	809.080300	146.550040	-321.654860	787.836130	64.144805	-335.668200	821.796360	238.556860	-323.821900	798.557640
12	1749651034.386000	159.617860	7.397488	870.655540	97.597210	0.330448	955.748140	236.406600	12.992352	894.831000	19.740993	-2.224699	1000.739000	301.336940	16.688064	868.514500	-30.636072	-257.552440	1034.648900	351.514940	-216.092380	820.148470	nan	nan	nan	-63.832210	-396.006850	996.213000	158.347130	-79.485536	850.360700	153.033050	-163.251980	822.350860	150.464160	-245.478240	809.094200	146.085000	-321.620230	787.573160	64.360390	-334.980880	821.674300	237.971630	-323.960240	798.676850
13	1749651034.419000	159.498680	7.450834	869.910000	97.878695	3.014371	959.057600	236.222950	11.809707	894.157700	19.550197	-1.666114	998.858700	301.411120	16.320810	868.372560	-30.676808	-256.973860	1034.669500	351.524700	-216.084540	819.942900	nan	nan	nan	-66.720050	-397.134130	1002.387200	158.331450	-79.464525	850.537700	152.996400	-163.238800	822.153300	150.339720	-245.518030	809.105200	145.933750	-321.571400	787.398800	63.725200	-335.102020	822.580200	238.445980	-323.829100	798.829560
14	1749651034.453000	159.096690	7.799208	870.394800	98.078050	4.921928	961.112200	236.454310	13.422087	895.121930	19.522944	-1.497477	1001.631500	300.686450	16.869456	868.940230	-30.815550	-258.310900	1031.567100	351.311120	-216.467230	819.842160	nan	nan	nan	-67.040734	-399.417340	1004.469600	158.323700	-79.417510	850.708250	152.992250	-163.175660	822.182100	150.327130	-245.478390	809.161200	148.293440	-321.616400	787.732240	64.050880	-335.256810	822.519960	238.988640	-323.640640	798.750160
15	1749651034.486000	159.022670	7.803813	869.939450	98.217950	5.955294	962.034170	236.662280	14.391482	895.693060	19.654855	-1.519278	1001.025800	300.515950	16.903192	868.771430	-31.110182	-261.556950	1031.691600	351.770640	-217.147130	819.676600	nan	nan	nan	-67.423870	-398.980600	1000.658800	158.354220	-79.513170	850.972530	152.997970	-163.225650	822.258000	150.349080	-245.522220	809.144140	147.619920	-321.632270	787.680150	63.967470	-336.832100	823.094100	239.069850	-323.373760	798.496660
16	1749651034.520000	158.697830	8.469746	869.493540	98.272674	6.506741	962.378140	236.800090	15.029550	896.053140	18.927988	-0.954986	1003.072100	300.682630	17.750248	868.765600	-31.865466	-262.389600	1028.281300	351.607440	-216.545760	820.087130	nan	nan	nan	-68.196990	-399.024300	998.719200	158.363340	-79.513310	851.120900	153.017420	-163.193480	822.391750	150.418980	-245.483520	809.193900	147.124530	-321.573850	787.680700	63.927814	-336.803320	823.507100	239.241610	-323.328440	798.557640
17	1749651034.553000	158.904060	8.174181	869.884430	98.281700	6.597802	962.105450	236.916700	15.248060	896.270600	18.514946	-1.174331	1001.697900	301.249180	17.340794	868.447900	-32.020994	-264.778140	1033.433600	351.474580	-216.396120	820.279000	nan	nan	nan	-67.163950	-397.068500	995.600800	158.379970	-79.598700	851.217800	153.032820	-163.247000	822.475000	150.478400	-245.529650	809.219700	149.084330	-321.725500	787.978700	64.550620	-337.345540	823.121370	239.429120	-323.639500	798.384000
18	1749651034.586000	159.054550	7.994249	871.487400	98.269925	6.455228	961.783470	236.994650	15.237436	896.392800	19.155920	-1.586109	998.889860	300.458520	17.317712	868.464950	-33.153508	-268.890440	1034.229200	351.370700	-216.008470	820.612400	nan	nan	nan	-70.626155	-398.672280	1001.232600	158.391550	-79.696460	851.262330	153.050480	-163.326560	822.557100	150.531630	-245.602890	809.259060	150.418310	-321.892650	788.240500	65.108255	-337.262750	822.576760	238.679050	-322.130380	795.112550
19	1749651034.620000	159.249810	7.198647	870.680450	98.055950	3.746301	959.102450	236.714440	12.779683	894.929400	20.922251	-2.184540	981.735300	299.078260	16.294375	868.070070	-33.529390	-269.718600	1037.544800	351.356270	-215.435200	820.990740	nan	nan	nan	-72.283715	-399.152460	998.250700	158.297990	-81.926930	850.591540	153.039020	-163.293990	822.472800	150.562500	-245.592760	809.312000	151.188160	-321.954850	788.449000	65.298670	-337.237780	822.382300	238.458830	-322.521500	796.473800
20	1749651034.654000	159.911080	6.721482	870.356800	97.876650	2.072304	957.287300	236.488210	11.272654	893.963300	22.411430	-3.212929	983.140700	299.333240	16.252622	868.600960	-33.461010	-268.603030	1036.545300	351.403980	-215.747600	820.582100	nan	nan	nan	-72.396730	-400.173400	999.259000	158.213900	-83.221260	850.101900	153.033170	-163.104920	822.448850	150.587920	-245.421500	809.383330	151.567340	-321.844280	788.643540	65.773350	-337.160940	823.168160	238.823620	-323.252380	797.866400
21	1749651034.687000	160.003900	5.964458	868.981240	97.748265	0.883982	956.228000	236.314000	10.193810	893.355000	22.519013	-4.143313	985.986200	300.098930	15.578628	869.270600	-33.647675	-268.826220	1033.487800	351.387020	-215.774250	819.979500	nan	nan	nan	-74.460280	-402.501940	999.765340	158.159940	-84.118540	849.834500	153.023750	-163.161980	822.368700	150.599200	-245.488660	809.357460	149.383830	-321.879450	788.508800	65.232650	-337.115820	823.894600	238.626930	-323.343720	798.828960
22	1749651034.720000	160.352440	6.550148	868.758300	97.644830	0.326306	955.614450	236.535640	12.114748	894.607250	23.065170	-3.404081	988.893400	300.411880	16.095906	868.981360	-33.726020	-269.646020	1034.055000	351.622550	-216.693970	819.632900	nan	nan	nan	-75.356650	-405.171220	1005.936100	158.244330	-82.273970	850.508400	153.013680	-163.156380	822.299500	150.605810	-245.487100	809.318400	147.830530	-321.845800	788.371440	64.708430	-337.237000	823.898700	238.797990	-323.908900	799.663900
23	1749651034.754000	160.480860	6.219566	867.769960	97.584170	0.132114	955.382100	236.366570	11.123016	893.955950	23.188670	-3.933460	990.903740	301.072630	15.912860	869.341970	-33.638220	-269.106570	1032.174000	351.875500	-217.443500	819.396850	nan	nan	nan	-75.850904	-403.678240	1005.092900	158.187150	-83.126426	850.170730	153.003110	-163.167420	822.235300	150.602500	-245.495540	809.257860	146.869420	-321.846040	788.292940	64.226800	-337.319370	823.777100	238.986850	-324.427070	799.836900
24	1749651034.787000	160.849270	6.455123	869.536760	97.568765	0.148192	955.426600	236.247140	10.442659	893.475950	23.079133	-3.511772	989.550230	301.253680	15.988871	868.808270	-33.128230	-267.144000	1034.581200	351.888900	-216.301430	820.096200	nan	nan	nan	-75.117010	-401.853020	1002.538300	158.262700	-81.481960	850.666050	153.008670	-163.205420	822.284300	150.588150	-245.508160	809.187950	146.357950	-321.853220	788.220300	63.252180	-335.876820	820.752560	237.714000	-322.647700	796.196640
